<svg width="30" height="31" viewBox="0 0 30 31" fill="none" xmlns="http://www.w3.org/2000/svg">
<path fill-rule="evenodd" clip-rule="evenodd" d="M0 15.5C0 7.21573 6.71573 0.5 15 0.5C23.2843 0.5 30 7.21573 30 15.5C30 23.7843 23.2843 30.5 15 30.5C6.71573 30.5 0 23.7843 0 15.5ZM15.7847 20.4226C15.7847 20.4226 16.0734 20.3911 16.2213 20.2351C16.3567 20.0922 16.352 19.8226 16.352 19.8226C16.352 19.8226 16.334 18.5636 16.9296 18.3777C17.5165 18.1949 18.2701 19.5952 19.0699 20.1337C19.674 20.5408 20.1326 20.4517 20.1326 20.4517L22.2697 20.4226C22.2697 20.4226 23.3872 20.355 22.8574 19.4923C22.8136 19.4216 22.5483 18.854 21.2688 17.6879C19.9283 16.4673 20.1083 16.6647 21.722 14.553C22.7048 13.2672 23.0977 12.4821 22.9748 12.1464C22.8582 11.8253 22.1351 11.9106 22.1351 11.9106L19.7296 11.9252C19.7296 11.9252 19.5511 11.9014 19.4189 11.9789C19.2898 12.055 19.206 12.2324 19.206 12.2324C19.206 12.2324 18.8257 13.2272 18.3178 14.0737C17.2465 15.8589 16.8184 15.9534 16.6431 15.8428C16.2354 15.5839 16.3372 14.8042 16.3372 14.2504C16.3372 12.5197 16.6048 11.7984 15.8167 11.6118C15.5554 11.5495 15.3629 11.5088 14.6938 11.5019C13.8353 11.4935 13.1091 11.505 12.6975 11.7024C12.4236 11.8338 12.2123 12.1272 12.3414 12.1441C12.5003 12.1648 12.8602 12.2394 13.0512 12.4944C13.2977 12.8239 13.2891 13.5629 13.2891 13.5629C13.2891 13.5629 13.4307 15.6 12.9581 15.8528C12.6341 16.0264 12.1896 15.6723 11.2341 14.0522C10.745 13.2226 10.3756 12.3054 10.3756 12.3054C10.3756 12.3054 10.3044 12.1341 10.1768 12.0419C10.0227 11.9306 9.80747 11.896 9.80747 11.896L7.52161 11.9106C7.52161 11.9106 7.17806 11.9198 7.05207 12.0665C6.94016 12.1963 7.04346 12.466 7.04346 12.466C7.04346 12.466 8.83318 16.5764 10.86 18.6481C12.7186 20.547 14.8284 20.4226 14.8284 20.4226H15.7847Z" fill="white"/>
</svg>
