<svg width="30" height="31" viewBox="0 0 30 31" fill="none" xmlns="http://www.w3.org/2000/svg">
<path fill-rule="evenodd" clip-rule="evenodd" d="M15 30.5C6.71573 30.5 0 23.7843 0 15.5C0 7.21573 6.71573 0.5 15 0.5C23.2843 0.5 30 7.21573 30 15.5C30 23.7843 23.2843 30.5 15 30.5ZM15.4944 23.8453C20.4122 23.8433 24.4119 19.8427 24.4138 14.9259C24.4148 12.5427 23.4879 10.3018 21.8039 8.61588C20.1199 6.92992 17.8804 6.00103 15.4943 6C10.578 6 6.57674 10.0011 6.57478 14.9189C6.57411 16.4909 6.98483 18.0253 7.76538 19.378L6.5 24L11.2283 22.7597C12.5311 23.4703 13.9979 23.8448 15.4907 23.8453H15.4944Z" fill="white"/>
<path fill-rule="evenodd" clip-rule="evenodd" d="M11.4475 21.1448L8.64163 21.8808L9.39055 19.1451L9.21429 18.8646C8.47218 17.6843 8.08024 16.3201 8.08081 14.9192C8.08243 10.8318 11.4082 7.50635 15.4974 7.50635C17.4776 7.50703 19.3389 8.27913 20.7386 9.68044C22.1383 11.0818 22.9087 12.9443 22.9079 14.9253C22.9063 19.013 19.5806 22.3388 15.4945 22.3388H15.4915C14.1612 22.3383 12.8564 21.9809 11.7182 21.3054L11.4475 21.1448ZM19.9881 17.0468C19.9324 16.9538 19.7838 16.898 19.5609 16.7864C19.3381 16.6749 18.2424 16.1358 18.038 16.0614C17.8338 15.987 17.6852 15.9499 17.5366 16.1729C17.3881 16.396 16.9609 16.898 16.8309 17.0468C16.7009 17.1955 16.5709 17.2142 16.3481 17.1026C16.1253 16.991 15.4071 16.7557 14.5559 15.9964C13.8933 15.4054 13.446 14.6756 13.316 14.4525C13.186 14.2294 13.3022 14.1088 13.4137 13.9977C13.514 13.8978 13.6366 13.7373 13.748 13.6072C13.8595 13.4771 13.8966 13.3841 13.9709 13.2354C14.0452 13.0866 14.0081 12.9565 13.9523 12.845C13.8966 12.7334 13.4509 11.6364 13.2652 11.1901C13.0843 10.7556 12.9005 10.8144 12.7637 10.8076C12.6339 10.801 12.4852 10.7997 12.3366 10.7997C12.188 10.7997 11.9466 10.8555 11.7423 11.0786C11.538 11.3017 10.9623 11.8409 10.9623 12.9378C10.9623 14.0348 11.7609 15.0946 11.8723 15.2433C11.9837 15.3921 13.4438 17.6431 15.6795 18.6085C16.2112 18.8381 16.6263 18.9753 16.95 19.078C17.4839 19.2476 17.9698 19.2237 18.3538 19.1663C18.782 19.1023 19.6723 18.6272 19.8581 18.1066C20.0438 17.5859 20.0438 17.1397 19.9881 17.0468Z" fill="white"/>
</svg>
